<svg id="Layer_1" data-name="Layer 1" xmlns="http://www.w3.org/2000/svg" viewBox="0 0 407.24 77.85"><defs><style>.cls-1{fill:#fff;}</style></defs><title>logo</title><path class="cls-1" d="M19.8,58.38v-43H7.29A5.69,5.69,0,0,1,1.62,9.78,5.7,5.7,0,0,1,7.29,4.11H45.18a5.7,5.7,0,0,1,5.67,5.67,5.69,5.69,0,0,1-5.67,5.58H32.67v43a6.43,6.43,0,0,1-12.87,0Z" transform="translate(-1.62 -3.48)"/><path class="cls-1" d="M77.31,25c0,2.79-1.8,5.13-5.4,5.67-3,.36-7.47,2-9.36,4.77V59a5.71,5.71,0,1,1-11.43,0V25.89a5.76,5.76,0,1,1,11.52-.09l-.09.81c1.89-2.61,4.5-5,7.11-6a7.14,7.14,0,0,1,2.88-.72C75.6,19.86,77.31,22.2,77.31,25Z" transform="translate(-1.62 -3.48)"/><path class="cls-1" d="M121,36.06V58.83a5.78,5.78,0,0,1-11.52.81c-2.88,3.42-8,5.58-13.68,5.58-6.93,0-15.12-4.68-15.12-14.4C80.73,40.65,88.92,37,95.85,37c5.76,0,10.89,1.8,13.77,5.31v-6c0-4.41-3.78-7.29-9.54-7.29a17.42,17.42,0,0,0-9.63,2.88,4.68,4.68,0,0,1-2.25.63A4.4,4.4,0,0,1,83.88,28a4.51,4.51,0,0,1,2.07-3.78,28.94,28.94,0,0,1,16.11-4.68C112,19.59,121,23.55,121,36.06ZM109.62,53.7V48.3c-1.89-2.52-5.49-3.78-9.18-3.78-4.5,0-8.19,2.43-8.19,6.57s3.69,6.39,8.19,6.39C104.13,57.48,107.73,56.22,109.62,53.7Z" transform="translate(-1.62 -3.48)"/><path class="cls-1" d="M171.09,25.71a5.79,5.79,0,0,1-.45,2.16l-12.78,31.5a8.71,8.71,0,0,1-16.11,0L129,27.78a5.34,5.34,0,0,1-.45-2.07A5.57,5.57,0,0,1,134.1,20a5.48,5.48,0,0,1,5.22,3.51l10.44,27.63,10.35-27.63a5.71,5.71,0,0,1,11,2.16Z" transform="translate(-1.62 -3.48)"/><path class="cls-1" d="M198.27,19.59c13,0,21.78,9.72,21.78,21.06,0,3.78-2.43,5.4-6.84,5.4H187.74c.72,5.49,5.13,10.08,12.51,10.08a18.6,18.6,0,0,0,8.82-2.43,4.28,4.28,0,0,1,2.16-.54,4.57,4.57,0,0,1,4.5,4.5,4.74,4.74,0,0,1-2.43,4A28.89,28.89,0,0,1,199,65.22c-13.23,0-23.22-8.91-23.22-22.86C175.77,29.76,185,19.59,198.27,19.59ZM187.56,38.31H209c-.27-4.14-3.15-9.63-10.71-9.63C191.16,28.68,188.1,34,187.56,38.31Z" transform="translate(-1.62 -3.48)"/><path class="cls-1" d="M228.33,59V9.24a5.71,5.71,0,1,1,11.43,0V59a5.71,5.71,0,1,1-11.43,0Z" transform="translate(-1.62 -3.48)"/><path class="cls-1" d="M304.46,58.29a6.53,6.53,0,0,1-6.57,6.48,6.33,6.33,0,0,1-6-4.32l-2.43-7h-27l-2.43,7a6.49,6.49,0,0,1-12.6-2.16,5.9,5.9,0,0,1,.45-2.25L265.4,10.68a11.3,11.3,0,0,1,21.06,0L303.92,56A5.91,5.91,0,0,1,304.46,58.29Zm-19-15.93-9.54-27.18-9.54,27.18Z" transform="translate(-1.62 -3.48)"/><path class="cls-1" d="M356.21,42.36c0,14.49-8.1,22.86-19.26,22.86a16.73,16.73,0,0,1-13.41-6.66v17a5.71,5.71,0,1,1-11.43,0V25.8a5.84,5.84,0,0,1,5.76-5.94,5.9,5.9,0,0,1,5.76,5.94v.27A16.79,16.79,0,0,1,337,19.59C348.11,19.59,356.21,27.87,356.21,42.36Zm-11.88,0c0-7.47-4.41-12.6-11-12.6a12.8,12.8,0,0,0-9.81,4.95V50.1A13.09,13.09,0,0,0,333.35,55C339.92,55,344.33,49.92,344.33,42.36Z" transform="translate(-1.62 -3.48)"/><path class="cls-1" d="M408.86,42.36c0,14.49-8.1,22.86-19.26,22.86a16.73,16.73,0,0,1-13.41-6.66v17a5.72,5.72,0,1,1-11.43,0V25.8a5.84,5.84,0,0,1,5.76-5.94,5.9,5.9,0,0,1,5.76,5.94v.27a16.79,16.79,0,0,1,13.32-6.48C400.76,19.59,408.86,27.87,408.86,42.36Zm-11.88,0c0-7.47-4.41-12.6-11-12.6a12.8,12.8,0,0,0-9.81,4.95V50.1A13.09,13.09,0,0,0,386,55C392.57,55,397,49.92,397,42.36Z" transform="translate(-1.62 -3.48)"/></svg>